<svg 
 xmlns="http://www.w3.org/2000/svg"
 xmlns:xlink="http://www.w3.org/1999/xlink"
 width="676.445px" height="730.63px">
<path fill-rule="evenodd"  opacity="0.369" fill="rgb(225, 224, 228)"
 d="M55.431,170.553 C84.241,71.268 241.278,18.035 406.184,51.655 C571.091,85.275 681.419,193.015 652.610,292.300 C623.800,391.585 414.717,649.023 249.811,615.403 C84.904,581.784 26.622,269.837 55.431,170.553 Z"/>
<path fill-rule="evenodd"  fill="rgb(239, 237, 246)"
 d="M444.571,507.457 C452.060,582.819 378.731,638.486 274.678,625.732 C146.890,610.068 51.791,501.644 88.766,416.857 C111.676,364.321 228.277,235.706 311.690,271.182 C383.087,301.547 439.427,455.692 444.571,507.457 Z"/>
<path fill-rule="evenodd"  fill="rgb(81, 94, 252)"
 d="M374.902,1.809 C423.830,-6.365 463.451,39.198 459.705,107.836 C455.104,192.132 388.431,259.068 331.380,238.557 C296.031,225.849 206.820,155.141 226.328,99.020 C243.026,50.984 341.294,7.424 374.902,1.809 Z"/>
<path fill-rule="evenodd"  stroke="rgb(255, 255, 255)" stroke-width="7.63px" stroke-linecap="butt" stroke-linejoin="miter" opacity="0.588" fill="none"
 d="M106.025,722.598 C106.025,722.598 74.870,511.362 149.036,527.612 C223.201,543.862 242.427,601.387 193.659,605.069 C144.891,608.751 81.885,482.110 117.597,442.991 C153.310,403.871 251.740,382.044 342.328,377.626 C432.916,373.208 585.903,316.886 588.974,246.339 C592.045,175.791 602.878,141.293 544.870,115.440 C486.862,89.587 444.925,16.667 422.388,78.239 C399.852,139.811 420.924,176.523 281.136,228.151 C141.347,279.779 86.444,373.084 39.547,281.652 C-7.351,190.219 -6.208,120.962 34.537,115.835 C75.282,110.708 241.941,138.880 206.923,71.050 C171.906,3.221 158.517,16.771 140.040,49.448 C121.562,82.124 227.016,258.895 280.781,266.803 C334.546,274.711 389.296,230.779 508.116,248.055 C626.936,265.331 689.586,265.494 661.651,329.235 C633.716,392.975 649.688,442.475 554.380,451.794 C459.071,461.113 491.847,468.644 445.698,454.784 "/>
</svg>